<svg xmlns="http://www.w3.org/2000/svg" version="1.1" xmlns:xlink="http://www.w3.org/1999/xlink" xmlns:svgjs="http://svgjs.dev/svgjs" width="128" height="128" viewBox="0 0 128 128"><g transform="matrix(0.8046875,0,0,0.8046875,12.333870967741937,12.333870967741937)"><svg viewBox="0 0 155 155" data-background-color="#282634" preserveAspectRatio="xMidYMid meet" height="128" width="128" xmlns="http://www.w3.org/2000/svg" xmlns:xlink="http://www.w3.org/1999/xlink"><g id="tight-bounds" transform="matrix(1,0,0,1,0.25,0.25)"><svg viewBox="0 0 154.5 154.5" height="154.5" width="154.5"><g><svg></svg></g><g><svg viewBox="0 0 154.5 154.5" height="154.5" width="154.5"><g transform="matrix(1,0,0,1,47.746371,52.62795838171263)"><svg viewBox="0 0 59.00725799999999 49.24408323657474" height="49.24408323657474" width="59.00725799999999"><g><svg viewBox="0 0 59.00725799999999 49.24408323657474" height="49.24408323657474" width="59.00725799999999"><g><svg viewBox="0 0 59.00725799999999 49.24408323657474" height="49.24408323657474" width="59.00725799999999"><g><svg viewBox="0 0 59.00725799999999 49.24408323657474" height="49.24408323657474" width="59.00725799999999"><g><svg viewBox="0 0 59.00725799999999 49.24408323657474" height="49.24408323657474" width="59.00725799999999"><g transform="matrix(1,0,0,1,0,0)"><svg width="59.00725799999999" viewBox="0.5 -28.75 34.45 28.75" height="49.24408323657474" data-palette-color="#ff4057"><path d="M34.95-28.75L34.95-3.4 29.3 0 18.95 0 18.95-5.65 28.65-5.65 28.65-28.75 34.95-28.75ZM0.5-9.1L7-9.1 7-5.65 16.5-5.65 16.5 0 6.35 0 0.5-3.4 0.5-9.1Z" opacity="1" transform="matrix(1,0,0,1,0,0)" fill="#ff4057" class="undefined-text-0" data-fill-palette-color="primary" id="text-0"></path></svg></g></svg></g></svg></g></svg></g></svg></g></svg></g><path d="M47.746 46.628L47.746 1 106.754 1 106.754 46.628 102.313 46.628 102.313 5.441 52.187 5.441 52.187 46.628 47.746 46.628M47.746 107.872L47.746 153.5 106.754 153.5 106.754 107.872 102.313 107.872 102.313 149.059 52.187 149.059 52.187 107.872 47.746 107.872" fill="#ff4057" stroke="transparent" data-fill-palette-color="primary"></path></svg></g><defs></defs></svg><rect width="154.5" height="154.5" fill="none" stroke="none" visibility="hidden"></rect></g></svg></g></svg>