<svg xmlns="http://www.w3.org/2000/svg" version="1.1" xmlns:xlink="http://www.w3.org/1999/xlink" xmlns:svgjs="http://svgjs.dev/svgjs" width="1000" height="1000" viewBox="0 0 1000 1000"><rect width="1000" height="1000" fill="#ffffff"></rect><g transform="matrix(0.7,0,0,0.7,149.57575757575756,282.1265587044535)"><svg viewBox="0 0 396 247" data-background-color="#282634" preserveAspectRatio="xMidYMid meet" height="623" width="1000" xmlns="http://www.w3.org/2000/svg" xmlns:xlink="http://www.w3.org/1999/xlink"><g id="tight-bounds" transform="matrix(1,0,0,1,0.2400000000000091,-0.09999999999999432)"><svg viewBox="0 0 395.52 247.2" height="247.2" width="395.52"><g><svg></svg></g><g><svg viewBox="0 0 395.52 247.2" height="247.2" width="395.52"><g transform="matrix(1,0,0,1,75.54432,96.14856328038161)"><svg viewBox="0 0 244.43135999999998 54.90287343923676" height="54.90287343923676" width="244.43135999999998"><g><svg viewBox="0 0 244.43135999999998 54.90287343923676" height="54.90287343923676" width="244.43135999999998"><g><svg viewBox="0 0 244.43135999999998 54.90287343923676" height="54.90287343923676" width="244.43135999999998"><g><svg viewBox="0 0 244.43135999999998 54.90287343923676" height="54.90287343923676" width="244.43135999999998"><g><svg viewBox="0 0 244.43135999999998 54.90287343923676" height="54.90287343923676" width="244.43135999999998"><g><svg viewBox="0 0 244.43135999999998 29.816277712833543" height="29.816277712833543" width="244.43135999999998"><g transform="matrix(1,0,0,1,0,0)"><svg width="244.43135999999998" viewBox="0.5 -28.75 236.08999633789062 28.799999237060547" height="29.816277712833543" data-palette-color="#ff4057"><path d="M34.95-28.75L34.95-3.4 29.3 0 18.95 0 18.95-5.65 28.65-5.65 28.65-28.75 34.95-28.75ZM0.5-9.1L7-9.1 7-5.65 16.5-5.65 16.5 0 6.35 0 0.5-3.4 0.5-9.1ZM39.95-22L46.25-22 46.25 0.05 39.95 0.05 39.95-22ZM46.15-28.7L46.15-24.05 39.95-24.05 39.95-28.7 46.15-28.7ZM84.05-9.7L84.05-3.45 78.34 0 70.3 0 70.3-5.25 78-5.25 78-9.3 70.45-9.3 70.45-13.2 78.34-13.2 84.05-9.7ZM54.25-12.75L54.25-18.4 59.95-21.85 68.05-21.85 68.05-17.2 60.55-17.2 60.55-13.2 68.05-13.2 68.05-9.3 59.95-9.3 54.25-12.75ZM54.25-6.95L60.55-6.95 60.55-5.25 68.05-5.25 68.05 0 59.95 0 54.25-3.45 54.25-6.95ZM84.05-15.05L77.8-15.05 77.8-17.2 70.3-17.2 70.3-21.85 78.34-21.85 84.05-18.4 84.05-15.05ZM92.04-3.4L92.04-9.75 97.74-13.2 105.94-13.2 105.94-9.35 98.39-9.35 98.39-5.25 105.94-5.25 105.94 0.05 97.74 0.05 92.04-3.4ZM98.39-15.05L92.04-15.05 92.04-18.5 97.74-22 105.94-22 105.94-17.3 98.39-17.3 98.39-15.05ZM122.04 0.05L122.04-18.5 116.34-22 108.14-22 108.14-17.3 115.69-17.3 115.69-13.2 108.14-13.2 108.14-9.35 115.69-9.35 115.69-5.25 108.34-5.25 108.34 0.05 122.04 0.05ZM131.54 0L131.54-28.75 147.54-28.75 147.54-23.1 137.84-23.1 137.84-5.85 147.54-5.85 147.54 0 131.54 0ZM165.99-3.4L165.99-25.3 160.34-28.75 149.99-28.75 149.99-23.1 159.69-23.1 159.69-5.85 149.99-5.85 149.99 0 160.34 0 165.99-3.4ZM201.09-18.55L201.09-12.85 195.19-9.4 187.19-9.4 187.19-13.25 194.74-13.25 194.74-17.35 187.19-17.35 187.19-22.05 195.19-22.05 201.09-18.55ZM194.54-6.95L201.09-6.95 201.09-3.45 195.19 0 187.19 0 187.19-5.3 194.54-5.3 194.54-6.95ZM170.89-18.55L170.89-3.45 176.79 0 184.74 0 184.74-5.3 177.19-5.3 177.19-9.4 184.74-9.4 184.74-13.25 177.19-13.25 177.19-17.35 184.74-17.35 184.74-22.05 176.79-22.05 170.89-18.55ZM205.59-20.05L211.89-21.85 220.14-9.3 220.14 0 218.19 0 205.59-20.05ZM236.59-20.05L230.54-21.85 222.64-9.3 222.64 0 224.44 0 236.59-20.05Z" opacity="1" transform="matrix(1,0,0,1,0,0)" fill="#000000" class="undefined-text-0" data-fill-palette-color="primary" id="text-0"></path></svg></g></svg></g><g transform="matrix(1,0,0,1,0,36.855185290168436)"><svg viewBox="0 0 244.43135999999998 18.04768814906832" height="18.04768814906832" width="244.43135999999998"><g transform="matrix(1,0,0,1,0,0)"><svg width="244.43135999999998" viewBox="5.25 -37.849998474121094 643.9400024414062 47.54999923706055" height="18.04768814906832" data-palette-color="#dcdcdc"><path d="M18.9-35Q25.7-35 29.6-31.75 33.5-28.5 33.5-22.8L33.5-22.8Q33.5-17.1 29.6-13.85 25.7-10.6 18.9-10.6L18.9-10.6 10.25-10.6 10.25 0 5.25 0 5.25-35 18.9-35ZM18.75-14.95Q23.5-14.95 26-16.98 28.5-19 28.5-22.8L28.5-22.8Q28.5-26.6 26-28.63 23.5-30.65 18.75-30.65L18.75-30.65 10.25-30.65 10.25-14.95 18.75-14.95ZM44.3-22.05Q45.55-24.35 48-25.55 50.45-26.75 53.95-26.75L53.95-26.75 53.95-22.1Q53.55-22.15 52.85-22.15L52.85-22.15Q48.95-22.15 46.72-19.83 44.5-17.5 44.5-13.2L44.5-13.2 44.5 0 39.7 0 39.7-26.5 44.3-26.5 44.3-22.05ZM70.95 0.3Q67 0.3 63.84-1.45 60.7-3.2 58.92-6.28 57.15-9.35 57.15-13.25L57.15-13.25Q57.15-17.15 58.92-20.23 60.7-23.3 63.84-25.03 67-26.75 70.95-26.75L70.95-26.75Q74.9-26.75 78.02-25.03 81.15-23.3 82.92-20.23 84.7-17.15 84.7-13.25L84.7-13.25Q84.7-9.35 82.92-6.28 81.15-3.2 78.02-1.45 74.9 0.3 70.95 0.3L70.95 0.3ZM70.95-3.9Q73.5-3.9 75.52-5.08 77.55-6.25 78.7-8.38 79.84-10.5 79.84-13.25L79.84-13.25Q79.84-16 78.7-18.13 77.55-20.25 75.52-21.4 73.5-22.55 70.95-22.55L70.95-22.55Q68.4-22.55 66.37-21.4 64.34-20.25 63.17-18.13 62-16 62-13.25L62-13.25Q62-10.5 63.17-8.38 64.34-6.25 66.37-5.08 68.4-3.9 70.95-3.9L70.95-3.9ZM100.34-33.45Q96.04-33.45 96.04-28.8L96.04-28.8 96.04-26.5 103.79-26.5 103.79-22.55 96.14-22.55 96.14 0 91.34 0 91.34-28.85Q91.34-32.8 93.64-35.1 95.94-37.4 100.09-37.4L100.09-37.4Q101.69-37.4 103.09-37 104.49-36.6 105.49-35.85L105.49-35.85 104.04-32.2Q102.39-33.45 100.34-33.45L100.34-33.45ZM119.84-3.9Q124.59-3.9 127.49-7.1L127.49-7.1 130.09-4Q128.34-1.9 125.67-0.8 122.99 0.3 119.69 0.3L119.69 0.3Q115.49 0.3 112.24-1.43 108.99-3.15 107.22-6.25 105.44-9.35 105.44-13.25L105.44-13.25Q105.44-17.1 107.17-20.2 108.89-23.3 111.92-25.03 114.94-26.75 118.74-26.75L118.74-26.75Q122.34-26.75 125.29-25.13 128.24-23.5 129.99-20.55 131.74-17.6 131.79-13.75L131.79-13.75 110.74-9.65Q111.74-6.9 114.12-5.4 116.49-3.9 119.84-3.9L119.84-3.9ZM118.74-22.7Q116.24-22.7 114.27-21.55 112.29-20.4 111.19-18.32 110.09-16.25 110.09-13.5L110.09-13.5 110.09-13 127.04-16.2Q126.39-19.1 124.14-20.9 121.89-22.7 118.74-22.7L118.74-22.7ZM146.09 0.3Q142.84 0.3 139.84-0.58 136.84-1.45 135.14-2.8L135.14-2.8 137.14-6.6Q138.89-5.35 141.39-4.6 143.89-3.85 146.44-3.85L146.44-3.85Q152.74-3.85 152.74-7.45L152.74-7.45Q152.74-8.65 151.89-9.35 151.04-10.05 149.76-10.38 148.49-10.7 146.14-11.1L146.14-11.1Q142.94-11.6 140.91-12.25 138.89-12.9 137.44-14.45 135.99-16 135.99-18.8L135.99-18.8Q135.99-22.4 138.99-24.58 141.99-26.75 147.04-26.75L147.04-26.75Q149.69-26.75 152.34-26.1 154.99-25.45 156.69-24.35L156.69-24.35 154.64-20.55Q151.39-22.65 146.99-22.65L146.99-22.65Q143.94-22.65 142.34-21.65 140.74-20.65 140.74-19L140.74-19Q140.74-17.7 141.64-16.95 142.54-16.2 143.86-15.85 145.19-15.5 147.59-15.05L147.59-15.05Q150.79-14.5 152.76-13.88 154.74-13.25 156.14-11.75 157.54-10.25 157.54-7.55L157.54-7.55Q157.54-3.95 154.46-1.83 151.39 0.3 146.09 0.3L146.09 0.3ZM163.54 0L163.54-26.5 168.34-26.5 168.34 0 163.54 0ZM165.94-31.6Q164.54-31.6 163.61-32.5 162.69-33.4 162.69-34.7L162.69-34.7Q162.69-36 163.61-36.93 164.54-37.85 165.94-37.85L165.94-37.85Q167.34-37.85 168.26-36.98 169.19-36.1 169.19-34.8L169.19-34.8Q169.19-33.45 168.26-32.52 167.34-31.6 165.94-31.6L165.94-31.6ZM188.83 0.3Q184.88 0.3 181.73-1.45 178.58-3.2 176.81-6.28 175.03-9.35 175.03-13.25L175.03-13.25Q175.03-17.15 176.81-20.23 178.58-23.3 181.73-25.03 184.88-26.75 188.83-26.75L188.83-26.75Q192.78-26.75 195.91-25.03 199.03-23.3 200.81-20.23 202.58-17.15 202.58-13.25L202.58-13.25Q202.58-9.35 200.81-6.28 199.03-3.2 195.91-1.45 192.78 0.3 188.83 0.3L188.83 0.3ZM188.83-3.9Q191.38-3.9 193.41-5.08 195.43-6.25 196.58-8.38 197.73-10.5 197.73-13.25L197.73-13.25Q197.73-16 196.58-18.13 195.43-20.25 193.41-21.4 191.38-22.55 188.83-22.55L188.83-22.55Q186.28-22.55 184.26-21.4 182.23-20.25 181.06-18.13 179.88-16 179.88-13.25L179.88-13.25Q179.88-10.5 181.06-8.38 182.23-6.25 184.26-5.08 186.28-3.9 188.83-3.9L188.83-3.9ZM223.38-26.75Q228.43-26.75 231.41-23.83 234.38-20.9 234.38-15.25L234.38-15.25 234.38 0 229.58 0 229.58-14.7Q229.58-18.55 227.73-20.5 225.88-22.45 222.43-22.45L222.43-22.45Q218.53-22.45 216.28-20.18 214.03-17.9 214.03-13.65L214.03-13.65 214.03 0 209.23 0 209.23-26.5 213.83-26.5 213.83-22.5Q215.28-24.55 217.75-25.65 220.23-26.75 223.38-26.75L223.38-26.75ZM263.63-26.5L268.43-26.5 268.43 0 263.83 0 263.83-4.2Q262.23-2 259.78-0.85 257.33 0.3 254.38 0.3L254.38 0.3Q250.53 0.3 247.48-1.4 244.43-3.1 242.7-6.18 240.98-9.25 240.98-13.25L240.98-13.25Q240.98-17.25 242.7-20.3 244.43-23.35 247.48-25.05 250.53-26.75 254.38-26.75L254.38-26.75Q257.23-26.75 259.63-25.68 262.03-24.6 263.63-22.5L263.63-22.5 263.63-26.5ZM254.78-3.9Q257.28-3.9 259.33-5.08 261.38-6.25 262.53-8.38 263.68-10.5 263.68-13.25L263.68-13.25Q263.68-16 262.53-18.13 261.38-20.25 259.33-21.4 257.28-22.55 254.78-22.55L254.78-22.55Q252.23-22.55 250.2-21.4 248.18-20.25 247-18.13 245.83-16 245.83-13.25L245.83-13.25Q245.83-10.5 247-8.38 248.18-6.25 250.2-5.08 252.23-3.9 254.78-3.9L254.78-3.9ZM285.58 0.3Q281.73 0.3 279.63-1.83 277.53-3.95 277.53-7.8L277.53-7.8 277.53-37.1 282.33-37.1 282.33-8.2Q282.33-6.05 283.35-4.9 284.38-3.75 286.43-3.75L286.43-3.75Q287.68-3.75 288.78-4.25L288.78-4.25 289.03-0.3Q287.38 0.3 285.58 0.3L285.58 0.3ZM307.72 0L307.72-35 322.47-35Q328.02-35 332.32-32.8 336.62-30.6 339-26.63 341.37-22.65 341.37-17.5L341.37-17.5Q341.37-12.35 339-8.38 336.62-4.4 332.32-2.2 328.02 0 322.47 0L322.47 0 307.72 0ZM312.72-4.35L322.17-4.35Q326.42-4.35 329.65-6 332.87-7.65 334.62-10.63 336.37-13.6 336.37-17.5L336.37-17.5Q336.37-21.4 334.62-24.38 332.87-27.35 329.65-29 326.42-30.65 322.17-30.65L322.17-30.65 312.72-30.65 312.72-4.35ZM360.27-3.9Q365.02-3.9 367.92-7.1L367.92-7.1 370.52-4Q368.77-1.9 366.09-0.8 363.42 0.3 360.12 0.3L360.12 0.3Q355.92 0.3 352.67-1.43 349.42-3.15 347.64-6.25 345.87-9.35 345.87-13.25L345.87-13.25Q345.87-17.1 347.59-20.2 349.32-23.3 352.34-25.03 355.37-26.75 359.17-26.75L359.17-26.75Q362.77-26.75 365.72-25.13 368.67-23.5 370.42-20.55 372.17-17.6 372.22-13.75L372.22-13.75 351.17-9.65Q352.17-6.9 354.54-5.4 356.92-3.9 360.27-3.9L360.27-3.9ZM359.17-22.7Q356.67-22.7 354.69-21.55 352.72-20.4 351.62-18.32 350.52-16.25 350.52-13.5L350.52-13.5 350.52-13 367.47-16.2Q366.82-19.1 364.57-20.9 362.32-22.7 359.17-22.7L359.17-22.7ZM397.17-26.5L401.87-26.5 390.27 0 385.37 0 373.77-26.5 378.77-26.5 387.87-5.25 397.17-26.5ZM417.56-3.9Q422.31-3.9 425.21-7.1L425.21-7.1 427.81-4Q426.06-1.9 423.39-0.8 420.71 0.3 417.41 0.3L417.41 0.3Q413.21 0.3 409.96-1.43 406.71-3.15 404.94-6.25 403.16-9.35 403.16-13.25L403.16-13.25Q403.16-17.1 404.89-20.2 406.61-23.3 409.64-25.03 412.66-26.75 416.46-26.75L416.46-26.75Q420.06-26.75 423.01-25.13 425.96-23.5 427.71-20.55 429.46-17.6 429.51-13.75L429.51-13.75 408.46-9.65Q409.46-6.9 411.84-5.4 414.21-3.9 417.56-3.9L417.56-3.9ZM416.46-22.7Q413.96-22.7 411.99-21.55 410.01-20.4 408.91-18.32 407.81-16.25 407.81-13.5L407.81-13.5 407.81-13 424.76-16.2Q424.11-19.1 421.86-20.9 419.61-22.7 416.46-22.7L416.46-22.7ZM444.26 0.3Q440.41 0.3 438.31-1.83 436.21-3.95 436.21-7.8L436.21-7.8 436.21-37.1 441.01-37.1 441.01-8.2Q441.01-6.05 442.04-4.9 443.06-3.75 445.11-3.75L445.11-3.75Q446.36-3.75 447.46-4.25L447.46-4.25 447.71-0.3Q446.06 0.3 444.26 0.3L444.26 0.3ZM463.11 0.3Q459.16 0.3 456.01-1.45 452.86-3.2 451.08-6.28 449.31-9.35 449.31-13.25L449.31-13.25Q449.31-17.15 451.08-20.23 452.86-23.3 456.01-25.03 459.16-26.75 463.11-26.75L463.11-26.75Q467.06-26.75 470.18-25.03 473.31-23.3 475.08-20.23 476.86-17.15 476.86-13.25L476.86-13.25Q476.86-9.35 475.08-6.28 473.31-3.2 470.18-1.45 467.06 0.3 463.11 0.3L463.11 0.3ZM463.11-3.9Q465.66-3.9 467.68-5.08 469.71-6.25 470.86-8.38 472.01-10.5 472.01-13.25L472.01-13.25Q472.01-16 470.86-18.13 469.71-20.25 467.68-21.4 465.66-22.55 463.11-22.55L463.11-22.55Q460.56-22.55 458.53-21.4 456.51-20.25 455.33-18.13 454.16-16 454.16-13.25L454.16-13.25Q454.16-10.5 455.33-8.38 456.51-6.25 458.53-5.08 460.56-3.9 463.11-3.9L463.11-3.9ZM497.56-26.75Q501.41-26.75 504.46-25.05 507.51-23.35 509.23-20.3 510.96-17.25 510.96-13.25L510.96-13.25Q510.96-9.25 509.23-6.18 507.51-3.1 504.46-1.4 501.41 0.3 497.56 0.3L497.56 0.3Q494.71 0.3 492.33-0.8 489.96-1.9 488.31-4L488.31-4 488.31 9.7 483.51 9.7 483.51-26.5 488.11-26.5 488.11-22.3Q489.71-24.5 492.16-25.63 494.61-26.75 497.56-26.75L497.56-26.75ZM497.16-3.9Q499.71-3.9 501.73-5.08 503.76-6.25 504.93-8.38 506.11-10.5 506.11-13.25L506.11-13.25Q506.11-16 504.93-18.13 503.76-20.25 501.73-21.4 499.71-22.55 497.16-22.55L497.16-22.55Q494.66-22.55 492.63-21.38 490.61-20.2 489.43-18.1 488.26-16 488.26-13.25L488.26-13.25Q488.26-10.5 489.41-8.38 490.56-6.25 492.61-5.08 494.66-3.9 497.16-3.9L497.16-3.9ZM550.75-26.75Q555.75-26.75 558.68-23.85 561.6-20.95 561.6-15.25L561.6-15.25 561.6 0 556.8 0 556.8-14.7Q556.8-18.55 555.03-20.5 553.25-22.45 549.95-22.45L549.95-22.45Q546.3-22.45 544.15-20.18 542-17.9 542-13.65L542-13.65 542 0 537.2 0 537.2-14.7Q537.2-18.55 535.43-20.5 533.65-22.45 530.35-22.45L530.35-22.45Q526.7-22.45 524.55-20.18 522.4-17.9 522.4-13.65L522.4-13.65 522.4 0 517.6 0 517.6-26.5 522.2-26.5 522.2-22.55Q523.65-24.6 526-25.68 528.35-26.75 531.35-26.75L531.35-26.75Q534.45-26.75 536.85-25.5 539.25-24.25 540.55-21.85L540.55-21.85Q542.05-24.15 544.73-25.45 547.4-26.75 550.75-26.75L550.75-26.75ZM582.55-3.9Q587.3-3.9 590.2-7.1L590.2-7.1 592.8-4Q591.05-1.9 588.38-0.8 585.7 0.3 582.4 0.3L582.4 0.3Q578.2 0.3 574.95-1.43 571.7-3.15 569.92-6.25 568.15-9.35 568.15-13.25L568.15-13.25Q568.15-17.1 569.88-20.2 571.6-23.3 574.63-25.03 577.65-26.75 581.45-26.75L581.45-26.75Q585.05-26.75 588-25.13 590.95-23.5 592.7-20.55 594.45-17.6 594.5-13.75L594.5-13.75 573.45-9.65Q574.45-6.9 576.82-5.4 579.2-3.9 582.55-3.9L582.55-3.9ZM581.45-22.7Q578.95-22.7 576.97-21.55 575-20.4 573.9-18.32 572.8-16.25 572.8-13.5L572.8-13.5 572.8-13 589.75-16.2Q589.1-19.1 586.85-20.9 584.6-22.7 581.45-22.7L581.45-22.7ZM615.35-26.75Q620.4-26.75 623.37-23.83 626.35-20.9 626.35-15.25L626.35-15.25 626.35 0 621.55 0 621.55-14.7Q621.55-18.55 619.7-20.5 617.85-22.45 614.4-22.45L614.4-22.45Q610.5-22.45 608.25-20.18 606-17.9 606-13.65L606-13.65 606 0 601.2 0 601.2-26.5 605.8-26.5 605.8-22.5Q607.25-24.55 609.72-25.65 612.2-26.75 615.35-26.75L615.35-26.75ZM647.69-5L649.19-1.55Q648.14-0.65 646.59-0.18 645.04 0.3 643.39 0.3L643.39 0.3Q639.39 0.3 637.19-1.85 634.99-4 634.99-8L634.99-8 634.99-32.3 639.79-32.3 639.79-26.5 647.39-26.5 647.39-22.55 639.79-22.55 639.79-8.2Q639.79-6.05 640.87-4.9 641.94-3.75 643.94-3.75L643.94-3.75Q646.14-3.75 647.69-5L647.69-5Z" opacity="1" transform="matrix(1,0,0,1,0,0)" fill="#000000" class="undefined-text-1" data-fill-palette-color="secondary" id="text-1"></path></svg></g></svg></g></svg></g></svg></g></svg></g></svg></g></svg></g><path d="M197.392 90.149L197.392 25.982 2.156 25.982 2.156 221.218 197.392 221.218 197.392 157.051 194.703 157.051 194.703 218.529 4.845 218.529 4.845 28.671 194.703 28.671 194.703 90.149Z" fill="#000000" stroke="transparent" data-fill-palette-color="primary"></path></svg></g><defs></defs></svg><rect width="395.52" height="247.2" fill="none" stroke="none" visibility="hidden"></rect></g></svg></g></svg>